<mxfile host="Electron" modified="2024-07-31T08:32:56.760Z" agent="Mozilla/5.0 (Windows NT 10.0; Win64; x64) AppleWebKit/537.36 (KHTML, like Gecko) draw.io/24.5.3 Chrome/124.0.6367.207 Electron/30.0.6 Safari/537.36" etag="3uAZX0SVTZiyKaxqxNA4" version="24.5.3" type="device" pages="3">
  <diagram name="DMAC Flow diagram" id="LS-jsJ8Cxh_Zm5S-Kdqb">
    <mxGraphModel dx="3190" dy="2193" grid="0" gridSize="10" guides="1" tooltips="1" connect="1" arrows="1" fold="1" page="0" pageScale="1" pageWidth="850" pageHeight="1100" math="0" shadow="0">
      <root>
        <mxCell id="0" />
        <mxCell id="1" parent="0" />
        <mxCell id="0vVIQA6ZL_RiP2QNrMzl-1" value="" style="rounded=1;whiteSpace=wrap;html=1;strokeWidth=2;strokeColor=#FF3333;" vertex="1" parent="1">
          <mxGeometry x="1260" y="-760" width="1460" height="820" as="geometry" />
        </mxCell>
        <mxCell id="0vVIQA6ZL_RiP2QNrMzl-2" value="" style="rounded=1;whiteSpace=wrap;html=1;strokeWidth=2;strokeColor=#FF3333;" vertex="1" parent="1">
          <mxGeometry x="1240" y="480" width="1460" height="820" as="geometry" />
        </mxCell>
        <mxCell id="0vVIQA6ZL_RiP2QNrMzl-3" value="" style="rounded=1;whiteSpace=wrap;html=1;strokeWidth=2;strokeColor=#FF3333;" vertex="1" parent="1">
          <mxGeometry x="-740" y="500" width="1460" height="820" as="geometry" />
        </mxCell>
        <mxCell id="0vVIQA6ZL_RiP2QNrMzl-4" value="" style="rounded=1;whiteSpace=wrap;html=1;strokeWidth=2;strokeColor=#FF3333;" vertex="1" parent="1">
          <mxGeometry x="-720" y="-790" width="1460" height="820" as="geometry" />
        </mxCell>
        <mxCell id="0vVIQA6ZL_RiP2QNrMzl-5" value="" style="rounded=0;whiteSpace=wrap;html=1;fillColor=none;dashed=1;strokeWidth=2;" vertex="1" parent="1">
          <mxGeometry x="-640" y="-630" width="1300" height="560" as="geometry" />
        </mxCell>
        <mxCell id="0vVIQA6ZL_RiP2QNrMzl-6" style="edgeStyle=orthogonalEdgeStyle;rounded=0;orthogonalLoop=1;jettySize=auto;html=1;strokeWidth=2;" edge="1" parent="1" source="0vVIQA6ZL_RiP2QNrMzl-7">
          <mxGeometry relative="1" as="geometry">
            <mxPoint x="-390" y="-30" as="targetPoint" />
          </mxGeometry>
        </mxCell>
        <mxCell id="0vVIQA6ZL_RiP2QNrMzl-7" value="&lt;font style=&quot;font-size: 22px;&quot;&gt;CPU&lt;/font&gt;" style="rounded=0;whiteSpace=wrap;html=1;strokeWidth=2;" vertex="1" parent="1">
          <mxGeometry x="-450" y="-730" width="120" height="60" as="geometry" />
        </mxCell>
        <mxCell id="0vVIQA6ZL_RiP2QNrMzl-8" style="edgeStyle=orthogonalEdgeStyle;rounded=0;orthogonalLoop=1;jettySize=auto;html=1;strokeWidth=2;" edge="1" parent="1" source="0vVIQA6ZL_RiP2QNrMzl-9">
          <mxGeometry relative="1" as="geometry">
            <mxPoint x="-130" y="-30" as="targetPoint" />
          </mxGeometry>
        </mxCell>
        <mxCell id="0vVIQA6ZL_RiP2QNrMzl-9" value="&lt;font style=&quot;font-size: 22px;&quot;&gt;DMAC&lt;/font&gt;" style="rounded=0;whiteSpace=wrap;html=1;strokeWidth=2;" vertex="1" parent="1">
          <mxGeometry x="-190" y="-730" width="120" height="60" as="geometry" />
        </mxCell>
        <mxCell id="0vVIQA6ZL_RiP2QNrMzl-10" style="edgeStyle=orthogonalEdgeStyle;rounded=0;orthogonalLoop=1;jettySize=auto;html=1;strokeWidth=2;" edge="1" parent="1" source="0vVIQA6ZL_RiP2QNrMzl-11">
          <mxGeometry relative="1" as="geometry">
            <mxPoint x="110" y="-30" as="targetPoint" />
          </mxGeometry>
        </mxCell>
        <mxCell id="0vVIQA6ZL_RiP2QNrMzl-11" value="&lt;font style=&quot;font-size: 22px;&quot;&gt;BUS&lt;/font&gt;" style="rounded=0;whiteSpace=wrap;html=1;strokeWidth=2;" vertex="1" parent="1">
          <mxGeometry x="50" y="-730" width="120" height="60" as="geometry" />
        </mxCell>
        <mxCell id="0vVIQA6ZL_RiP2QNrMzl-12" style="edgeStyle=orthogonalEdgeStyle;rounded=0;orthogonalLoop=1;jettySize=auto;html=1;strokeWidth=2;" edge="1" parent="1" source="0vVIQA6ZL_RiP2QNrMzl-13">
          <mxGeometry relative="1" as="geometry">
            <mxPoint x="350" y="-30" as="targetPoint" />
          </mxGeometry>
        </mxCell>
        <mxCell id="0vVIQA6ZL_RiP2QNrMzl-13" value="&lt;span style=&quot;font-size: 22px;&quot;&gt;Memory&lt;/span&gt;" style="rounded=0;whiteSpace=wrap;html=1;strokeWidth=2;" vertex="1" parent="1">
          <mxGeometry x="290" y="-730" width="120" height="60" as="geometry" />
        </mxCell>
        <mxCell id="0vVIQA6ZL_RiP2QNrMzl-14" style="edgeStyle=orthogonalEdgeStyle;rounded=0;orthogonalLoop=1;jettySize=auto;html=1;strokeWidth=2;" edge="1" parent="1" source="0vVIQA6ZL_RiP2QNrMzl-15">
          <mxGeometry relative="1" as="geometry">
            <mxPoint x="580" y="-30" as="targetPoint" />
          </mxGeometry>
        </mxCell>
        <mxCell id="0vVIQA6ZL_RiP2QNrMzl-15" value="&lt;span style=&quot;font-size: 22px;&quot;&gt;Peripheral&lt;/span&gt;" style="rounded=0;whiteSpace=wrap;html=1;strokeWidth=2;" vertex="1" parent="1">
          <mxGeometry x="520" y="-730" width="120" height="60" as="geometry" />
        </mxCell>
        <mxCell id="0vVIQA6ZL_RiP2QNrMzl-16" value="" style="endArrow=classic;html=1;rounded=0;strokeWidth=2;" edge="1" parent="1">
          <mxGeometry width="50" height="50" relative="1" as="geometry">
            <mxPoint x="-390" y="-590" as="sourcePoint" />
            <mxPoint x="-130" y="-590" as="targetPoint" />
          </mxGeometry>
        </mxCell>
        <mxCell id="0vVIQA6ZL_RiP2QNrMzl-17" value="&lt;font style=&quot;font-size: 22px;&quot;&gt;Setting DMAC&lt;/font&gt;" style="text;html=1;align=center;verticalAlign=middle;resizable=0;points=[];autosize=1;strokeColor=none;fillColor=none;" vertex="1" parent="1">
          <mxGeometry x="-340" y="-630" width="160" height="40" as="geometry" />
        </mxCell>
        <mxCell id="0vVIQA6ZL_RiP2QNrMzl-18" value="" style="endArrow=classic;html=1;rounded=0;jumpStyle=arc;strokeWidth=2;jumpSize=14;" edge="1" parent="1">
          <mxGeometry width="50" height="50" relative="1" as="geometry">
            <mxPoint x="580" y="-550" as="sourcePoint" />
            <mxPoint x="-130" y="-550" as="targetPoint" />
          </mxGeometry>
        </mxCell>
        <mxCell id="0vVIQA6ZL_RiP2QNrMzl-19" value="&lt;font style=&quot;font-size: 22px;&quot;&gt;Request DMA&lt;/font&gt;" style="text;html=1;align=center;verticalAlign=middle;resizable=0;points=[];autosize=1;strokeColor=none;fillColor=none;" vertex="1" parent="1">
          <mxGeometry x="390" y="-590" width="160" height="40" as="geometry" />
        </mxCell>
        <mxCell id="0vVIQA6ZL_RiP2QNrMzl-20" value="" style="endArrow=classic;html=1;rounded=0;strokeWidth=2;" edge="1" parent="1">
          <mxGeometry width="50" height="50" relative="1" as="geometry">
            <mxPoint x="-130" y="-470" as="sourcePoint" />
            <mxPoint x="110" y="-470" as="targetPoint" />
          </mxGeometry>
        </mxCell>
        <mxCell id="0vVIQA6ZL_RiP2QNrMzl-21" value="&lt;font style=&quot;font-size: 22px;&quot;&gt;Request read trans&lt;/font&gt;" style="text;html=1;align=center;verticalAlign=middle;resizable=0;points=[];autosize=1;strokeColor=none;fillColor=none;" vertex="1" parent="1">
          <mxGeometry x="-120" y="-510" width="210" height="40" as="geometry" />
        </mxCell>
        <mxCell id="0vVIQA6ZL_RiP2QNrMzl-22" value="" style="endArrow=classic;html=1;rounded=0;strokeWidth=2;" edge="1" parent="1">
          <mxGeometry width="50" height="50" relative="1" as="geometry">
            <mxPoint x="110" y="-470" as="sourcePoint" />
            <mxPoint x="350" y="-470" as="targetPoint" />
          </mxGeometry>
        </mxCell>
        <mxCell id="0vVIQA6ZL_RiP2QNrMzl-23" value="&lt;font style=&quot;font-size: 22px;&quot;&gt;Forward read trans&lt;/font&gt;" style="text;html=1;align=center;verticalAlign=middle;resizable=0;points=[];autosize=1;strokeColor=none;fillColor=none;" vertex="1" parent="1">
          <mxGeometry x="125" y="-510" width="210" height="40" as="geometry" />
        </mxCell>
        <mxCell id="0vVIQA6ZL_RiP2QNrMzl-24" value="" style="endArrow=classic;html=1;rounded=0;strokeWidth=2;" edge="1" parent="1">
          <mxGeometry width="50" height="50" relative="1" as="geometry">
            <mxPoint x="350" y="-390" as="sourcePoint" />
            <mxPoint x="110" y="-390" as="targetPoint" />
          </mxGeometry>
        </mxCell>
        <mxCell id="0vVIQA6ZL_RiP2QNrMzl-25" value="&lt;font style=&quot;font-size: 22px;&quot;&gt;Return Data&lt;/font&gt;" style="text;html=1;align=center;verticalAlign=middle;resizable=0;points=[];autosize=1;strokeColor=none;fillColor=none;" vertex="1" parent="1">
          <mxGeometry x="160" y="-430" width="140" height="40" as="geometry" />
        </mxCell>
        <mxCell id="0vVIQA6ZL_RiP2QNrMzl-26" value="" style="endArrow=classic;html=1;rounded=0;strokeWidth=2;" edge="1" parent="1">
          <mxGeometry width="50" height="50" relative="1" as="geometry">
            <mxPoint x="110" y="-390" as="sourcePoint" />
            <mxPoint x="-130" y="-390" as="targetPoint" />
          </mxGeometry>
        </mxCell>
        <mxCell id="0vVIQA6ZL_RiP2QNrMzl-27" value="&lt;font style=&quot;font-size: 22px;&quot;&gt;Return Data&lt;/font&gt;" style="text;html=1;align=center;verticalAlign=middle;resizable=0;points=[];autosize=1;strokeColor=none;fillColor=none;" vertex="1" parent="1">
          <mxGeometry x="-80" y="-430" width="140" height="40" as="geometry" />
        </mxCell>
        <mxCell id="0vVIQA6ZL_RiP2QNrMzl-28" value="" style="endArrow=classic;html=1;rounded=0;strokeWidth=2;" edge="1" parent="1">
          <mxGeometry width="50" height="50" relative="1" as="geometry">
            <mxPoint x="-130" y="-310" as="sourcePoint" />
            <mxPoint x="110" y="-310" as="targetPoint" />
          </mxGeometry>
        </mxCell>
        <mxCell id="0vVIQA6ZL_RiP2QNrMzl-29" value="&lt;font style=&quot;font-size: 22px;&quot;&gt;Request write trans&lt;/font&gt;" style="text;html=1;align=center;verticalAlign=middle;resizable=0;points=[];autosize=1;strokeColor=none;fillColor=none;" vertex="1" parent="1">
          <mxGeometry x="-115" y="-350" width="210" height="40" as="geometry" />
        </mxCell>
        <mxCell id="0vVIQA6ZL_RiP2QNrMzl-30" value="" style="endArrow=classic;html=1;rounded=0;strokeWidth=2;jumpStyle=arc;jumpSize=14;" edge="1" parent="1">
          <mxGeometry width="50" height="50" relative="1" as="geometry">
            <mxPoint x="110" y="-310" as="sourcePoint" />
            <mxPoint x="580" y="-310" as="targetPoint" />
          </mxGeometry>
        </mxCell>
        <mxCell id="0vVIQA6ZL_RiP2QNrMzl-31" value="&lt;font style=&quot;font-size: 22px;&quot;&gt;Forward write trans&lt;/font&gt;" style="text;html=1;align=center;verticalAlign=middle;resizable=0;points=[];autosize=1;strokeColor=none;fillColor=none;" vertex="1" parent="1">
          <mxGeometry x="125" y="-350" width="210" height="40" as="geometry" />
        </mxCell>
        <mxCell id="0vVIQA6ZL_RiP2QNrMzl-32" value="" style="endArrow=classic;html=1;rounded=0;strokeWidth=2;jumpSize=14;jumpStyle=arc;" edge="1" parent="1">
          <mxGeometry width="50" height="50" relative="1" as="geometry">
            <mxPoint x="580" y="-230" as="sourcePoint" />
            <mxPoint x="110" y="-230" as="targetPoint" />
          </mxGeometry>
        </mxCell>
        <mxCell id="0vVIQA6ZL_RiP2QNrMzl-33" value="&lt;font style=&quot;font-size: 22px;&quot;&gt;Return END_REQ&lt;/font&gt;" style="text;html=1;align=center;verticalAlign=middle;resizable=0;points=[];autosize=1;strokeColor=none;fillColor=none;" vertex="1" parent="1">
          <mxGeometry x="380" y="-267" width="200" height="40" as="geometry" />
        </mxCell>
        <mxCell id="0vVIQA6ZL_RiP2QNrMzl-34" value="" style="endArrow=classic;html=1;rounded=0;strokeWidth=2;" edge="1" parent="1">
          <mxGeometry width="50" height="50" relative="1" as="geometry">
            <mxPoint x="110" y="-230" as="sourcePoint" />
            <mxPoint x="-130" y="-230" as="targetPoint" />
          </mxGeometry>
        </mxCell>
        <mxCell id="0vVIQA6ZL_RiP2QNrMzl-35" value="&lt;font style=&quot;font-size: 22px;&quot;&gt;Return END_REQ&lt;/font&gt;" style="text;html=1;align=center;verticalAlign=middle;resizable=0;points=[];autosize=1;strokeColor=none;fillColor=none;" vertex="1" parent="1">
          <mxGeometry x="-100" y="-267" width="200" height="40" as="geometry" />
        </mxCell>
        <mxCell id="0vVIQA6ZL_RiP2QNrMzl-36" value="" style="endArrow=classic;html=1;rounded=0;strokeWidth=2;jumpSize=14;jumpStyle=arc;" edge="1" parent="1">
          <mxGeometry width="50" height="50" relative="1" as="geometry">
            <mxPoint x="-130" y="-150" as="sourcePoint" />
            <mxPoint x="580" y="-150" as="targetPoint" />
          </mxGeometry>
        </mxCell>
        <mxCell id="0vVIQA6ZL_RiP2QNrMzl-37" value="&lt;font style=&quot;font-size: 22px;&quot;&gt;ACK&lt;/font&gt;" style="text;html=1;align=center;verticalAlign=middle;resizable=0;points=[];autosize=1;strokeColor=none;fillColor=none;" vertex="1" parent="1">
          <mxGeometry x="-105" y="-187" width="70" height="40" as="geometry" />
        </mxCell>
        <mxCell id="0vVIQA6ZL_RiP2QNrMzl-38" value="&lt;font color=&quot;#ff0000&quot; style=&quot;font-size: 22px;&quot;&gt;Memory to peripheral&lt;/font&gt;" style="text;html=1;align=center;verticalAlign=middle;resizable=0;points=[];autosize=1;strokeColor=none;fillColor=none;" vertex="1" parent="1">
          <mxGeometry x="-620" y="-620" width="230" height="40" as="geometry" />
        </mxCell>
        <mxCell id="0vVIQA6ZL_RiP2QNrMzl-39" value="" style="rounded=0;whiteSpace=wrap;html=1;fillColor=none;dashed=1;strokeWidth=2;" vertex="1" parent="1">
          <mxGeometry x="1320" y="-590" width="1300" height="560" as="geometry" />
        </mxCell>
        <mxCell id="0vVIQA6ZL_RiP2QNrMzl-40" style="edgeStyle=orthogonalEdgeStyle;rounded=0;orthogonalLoop=1;jettySize=auto;html=1;strokeWidth=2;" edge="1" parent="1" source="0vVIQA6ZL_RiP2QNrMzl-41">
          <mxGeometry relative="1" as="geometry">
            <mxPoint x="1570" y="10" as="targetPoint" />
          </mxGeometry>
        </mxCell>
        <mxCell id="0vVIQA6ZL_RiP2QNrMzl-41" value="&lt;font style=&quot;font-size: 22px;&quot;&gt;CPU&lt;/font&gt;" style="rounded=0;whiteSpace=wrap;html=1;strokeWidth=2;" vertex="1" parent="1">
          <mxGeometry x="1510" y="-690" width="120" height="60" as="geometry" />
        </mxCell>
        <mxCell id="0vVIQA6ZL_RiP2QNrMzl-42" style="edgeStyle=orthogonalEdgeStyle;rounded=0;orthogonalLoop=1;jettySize=auto;html=1;strokeWidth=2;" edge="1" parent="1" source="0vVIQA6ZL_RiP2QNrMzl-43">
          <mxGeometry relative="1" as="geometry">
            <mxPoint x="1830" y="10" as="targetPoint" />
          </mxGeometry>
        </mxCell>
        <mxCell id="0vVIQA6ZL_RiP2QNrMzl-43" value="&lt;font style=&quot;font-size: 22px;&quot;&gt;DMAC&lt;/font&gt;" style="rounded=0;whiteSpace=wrap;html=1;strokeWidth=2;" vertex="1" parent="1">
          <mxGeometry x="1770" y="-690" width="120" height="60" as="geometry" />
        </mxCell>
        <mxCell id="0vVIQA6ZL_RiP2QNrMzl-44" style="edgeStyle=orthogonalEdgeStyle;rounded=0;orthogonalLoop=1;jettySize=auto;html=1;strokeWidth=2;" edge="1" parent="1" source="0vVIQA6ZL_RiP2QNrMzl-45">
          <mxGeometry relative="1" as="geometry">
            <mxPoint x="2070" y="10" as="targetPoint" />
          </mxGeometry>
        </mxCell>
        <mxCell id="0vVIQA6ZL_RiP2QNrMzl-45" value="&lt;font style=&quot;font-size: 22px;&quot;&gt;BUS&lt;/font&gt;" style="rounded=0;whiteSpace=wrap;html=1;strokeWidth=2;" vertex="1" parent="1">
          <mxGeometry x="2010" y="-690" width="120" height="60" as="geometry" />
        </mxCell>
        <mxCell id="0vVIQA6ZL_RiP2QNrMzl-46" style="edgeStyle=orthogonalEdgeStyle;rounded=0;orthogonalLoop=1;jettySize=auto;html=1;strokeWidth=2;" edge="1" parent="1" source="0vVIQA6ZL_RiP2QNrMzl-47">
          <mxGeometry relative="1" as="geometry">
            <mxPoint x="2310" y="10" as="targetPoint" />
          </mxGeometry>
        </mxCell>
        <mxCell id="0vVIQA6ZL_RiP2QNrMzl-47" value="&lt;span style=&quot;font-size: 22px;&quot;&gt;Peripheral&lt;/span&gt;" style="rounded=0;whiteSpace=wrap;html=1;strokeWidth=2;" vertex="1" parent="1">
          <mxGeometry x="2250" y="-690" width="120" height="60" as="geometry" />
        </mxCell>
        <mxCell id="0vVIQA6ZL_RiP2QNrMzl-48" style="edgeStyle=orthogonalEdgeStyle;rounded=0;orthogonalLoop=1;jettySize=auto;html=1;strokeWidth=2;" edge="1" parent="1" source="0vVIQA6ZL_RiP2QNrMzl-49">
          <mxGeometry relative="1" as="geometry">
            <mxPoint x="2540" y="10" as="targetPoint" />
          </mxGeometry>
        </mxCell>
        <mxCell id="0vVIQA6ZL_RiP2QNrMzl-49" value="&lt;span style=&quot;font-size: 22px;&quot;&gt;Memory&lt;/span&gt;" style="rounded=0;whiteSpace=wrap;html=1;strokeWidth=2;" vertex="1" parent="1">
          <mxGeometry x="2480" y="-690" width="120" height="60" as="geometry" />
        </mxCell>
        <mxCell id="0vVIQA6ZL_RiP2QNrMzl-50" value="" style="endArrow=classic;html=1;rounded=0;strokeWidth=2;" edge="1" parent="1">
          <mxGeometry width="50" height="50" relative="1" as="geometry">
            <mxPoint x="1570" y="-550" as="sourcePoint" />
            <mxPoint x="1830" y="-550" as="targetPoint" />
          </mxGeometry>
        </mxCell>
        <mxCell id="0vVIQA6ZL_RiP2QNrMzl-51" value="&lt;font style=&quot;font-size: 22px;&quot;&gt;Setting DMAC&lt;/font&gt;" style="text;html=1;align=center;verticalAlign=middle;resizable=0;points=[];autosize=1;strokeColor=none;fillColor=none;" vertex="1" parent="1">
          <mxGeometry x="1620" y="-590" width="160" height="40" as="geometry" />
        </mxCell>
        <mxCell id="0vVIQA6ZL_RiP2QNrMzl-52" value="" style="endArrow=classic;html=1;rounded=0;jumpStyle=arc;strokeWidth=2;jumpSize=14;" edge="1" parent="1">
          <mxGeometry width="50" height="50" relative="1" as="geometry">
            <mxPoint x="2540" y="-510" as="sourcePoint" />
            <mxPoint x="1830" y="-510" as="targetPoint" />
          </mxGeometry>
        </mxCell>
        <mxCell id="0vVIQA6ZL_RiP2QNrMzl-53" value="&lt;font style=&quot;font-size: 22px;&quot;&gt;Request DMA&lt;/font&gt;" style="text;html=1;align=center;verticalAlign=middle;resizable=0;points=[];autosize=1;strokeColor=none;fillColor=none;" vertex="1" parent="1">
          <mxGeometry x="2350" y="-550" width="160" height="40" as="geometry" />
        </mxCell>
        <mxCell id="0vVIQA6ZL_RiP2QNrMzl-54" value="" style="endArrow=classic;html=1;rounded=0;strokeWidth=2;" edge="1" parent="1">
          <mxGeometry width="50" height="50" relative="1" as="geometry">
            <mxPoint x="1830" y="-430" as="sourcePoint" />
            <mxPoint x="2070" y="-430" as="targetPoint" />
          </mxGeometry>
        </mxCell>
        <mxCell id="0vVIQA6ZL_RiP2QNrMzl-55" value="&lt;font style=&quot;font-size: 22px;&quot;&gt;Request read trans&lt;/font&gt;" style="text;html=1;align=center;verticalAlign=middle;resizable=0;points=[];autosize=1;strokeColor=none;fillColor=none;" vertex="1" parent="1">
          <mxGeometry x="1840" y="-470" width="210" height="40" as="geometry" />
        </mxCell>
        <mxCell id="0vVIQA6ZL_RiP2QNrMzl-56" value="" style="endArrow=classic;html=1;rounded=0;strokeWidth=2;" edge="1" parent="1">
          <mxGeometry width="50" height="50" relative="1" as="geometry">
            <mxPoint x="2070" y="-430" as="sourcePoint" />
            <mxPoint x="2310" y="-430" as="targetPoint" />
          </mxGeometry>
        </mxCell>
        <mxCell id="0vVIQA6ZL_RiP2QNrMzl-57" value="&lt;font style=&quot;font-size: 22px;&quot;&gt;Forward read trans&lt;/font&gt;" style="text;html=1;align=center;verticalAlign=middle;resizable=0;points=[];autosize=1;strokeColor=none;fillColor=none;" vertex="1" parent="1">
          <mxGeometry x="2085" y="-470" width="210" height="40" as="geometry" />
        </mxCell>
        <mxCell id="0vVIQA6ZL_RiP2QNrMzl-58" value="" style="endArrow=classic;html=1;rounded=0;strokeWidth=2;" edge="1" parent="1">
          <mxGeometry width="50" height="50" relative="1" as="geometry">
            <mxPoint x="2310" y="-350" as="sourcePoint" />
            <mxPoint x="2070" y="-350" as="targetPoint" />
          </mxGeometry>
        </mxCell>
        <mxCell id="0vVIQA6ZL_RiP2QNrMzl-59" value="&lt;font style=&quot;font-size: 22px;&quot;&gt;Return Data&lt;/font&gt;" style="text;html=1;align=center;verticalAlign=middle;resizable=0;points=[];autosize=1;strokeColor=none;fillColor=none;" vertex="1" parent="1">
          <mxGeometry x="2120" y="-390" width="140" height="40" as="geometry" />
        </mxCell>
        <mxCell id="0vVIQA6ZL_RiP2QNrMzl-60" value="" style="endArrow=classic;html=1;rounded=0;strokeWidth=2;" edge="1" parent="1">
          <mxGeometry width="50" height="50" relative="1" as="geometry">
            <mxPoint x="2070" y="-350" as="sourcePoint" />
            <mxPoint x="1830" y="-350" as="targetPoint" />
          </mxGeometry>
        </mxCell>
        <mxCell id="0vVIQA6ZL_RiP2QNrMzl-61" value="&lt;font style=&quot;font-size: 22px;&quot;&gt;Return Data&lt;/font&gt;" style="text;html=1;align=center;verticalAlign=middle;resizable=0;points=[];autosize=1;strokeColor=none;fillColor=none;" vertex="1" parent="1">
          <mxGeometry x="1880" y="-390" width="140" height="40" as="geometry" />
        </mxCell>
        <mxCell id="0vVIQA6ZL_RiP2QNrMzl-62" value="" style="endArrow=classic;html=1;rounded=0;strokeWidth=2;" edge="1" parent="1">
          <mxGeometry width="50" height="50" relative="1" as="geometry">
            <mxPoint x="1830" y="-270" as="sourcePoint" />
            <mxPoint x="2070" y="-270" as="targetPoint" />
          </mxGeometry>
        </mxCell>
        <mxCell id="0vVIQA6ZL_RiP2QNrMzl-63" value="&lt;font style=&quot;font-size: 22px;&quot;&gt;Request write trans&lt;/font&gt;" style="text;html=1;align=center;verticalAlign=middle;resizable=0;points=[];autosize=1;strokeColor=none;fillColor=none;" vertex="1" parent="1">
          <mxGeometry x="1845" y="-310" width="210" height="40" as="geometry" />
        </mxCell>
        <mxCell id="0vVIQA6ZL_RiP2QNrMzl-64" value="" style="endArrow=classic;html=1;rounded=0;strokeWidth=2;jumpStyle=arc;jumpSize=14;" edge="1" parent="1">
          <mxGeometry width="50" height="50" relative="1" as="geometry">
            <mxPoint x="2070" y="-270" as="sourcePoint" />
            <mxPoint x="2540" y="-270" as="targetPoint" />
          </mxGeometry>
        </mxCell>
        <mxCell id="0vVIQA6ZL_RiP2QNrMzl-65" value="&lt;font style=&quot;font-size: 22px;&quot;&gt;Forward write trans&lt;/font&gt;" style="text;html=1;align=center;verticalAlign=middle;resizable=0;points=[];autosize=1;strokeColor=none;fillColor=none;" vertex="1" parent="1">
          <mxGeometry x="2085" y="-310" width="210" height="40" as="geometry" />
        </mxCell>
        <mxCell id="0vVIQA6ZL_RiP2QNrMzl-66" value="" style="endArrow=classic;html=1;rounded=0;strokeWidth=2;jumpSize=14;jumpStyle=arc;" edge="1" parent="1">
          <mxGeometry width="50" height="50" relative="1" as="geometry">
            <mxPoint x="2540" y="-190" as="sourcePoint" />
            <mxPoint x="2070" y="-190" as="targetPoint" />
          </mxGeometry>
        </mxCell>
        <mxCell id="0vVIQA6ZL_RiP2QNrMzl-67" value="&lt;font style=&quot;font-size: 22px;&quot;&gt;Return END_REQ&lt;/font&gt;" style="text;html=1;align=center;verticalAlign=middle;resizable=0;points=[];autosize=1;strokeColor=none;fillColor=none;" vertex="1" parent="1">
          <mxGeometry x="2340" y="-227" width="200" height="40" as="geometry" />
        </mxCell>
        <mxCell id="0vVIQA6ZL_RiP2QNrMzl-68" value="" style="endArrow=classic;html=1;rounded=0;strokeWidth=2;" edge="1" parent="1">
          <mxGeometry width="50" height="50" relative="1" as="geometry">
            <mxPoint x="2070" y="-190" as="sourcePoint" />
            <mxPoint x="1830" y="-190" as="targetPoint" />
          </mxGeometry>
        </mxCell>
        <mxCell id="0vVIQA6ZL_RiP2QNrMzl-69" value="&lt;font style=&quot;font-size: 22px;&quot;&gt;Return END_REQ&lt;/font&gt;" style="text;html=1;align=center;verticalAlign=middle;resizable=0;points=[];autosize=1;strokeColor=none;fillColor=none;" vertex="1" parent="1">
          <mxGeometry x="1860" y="-227" width="200" height="40" as="geometry" />
        </mxCell>
        <mxCell id="0vVIQA6ZL_RiP2QNrMzl-70" value="" style="endArrow=classic;html=1;rounded=0;strokeWidth=2;jumpSize=14;jumpStyle=arc;" edge="1" parent="1">
          <mxGeometry width="50" height="50" relative="1" as="geometry">
            <mxPoint x="1830" y="-110" as="sourcePoint" />
            <mxPoint x="2540" y="-110" as="targetPoint" />
          </mxGeometry>
        </mxCell>
        <mxCell id="0vVIQA6ZL_RiP2QNrMzl-71" value="&lt;font style=&quot;font-size: 22px;&quot;&gt;ACK&lt;/font&gt;" style="text;html=1;align=center;verticalAlign=middle;resizable=0;points=[];autosize=1;strokeColor=none;fillColor=none;" vertex="1" parent="1">
          <mxGeometry x="1855" y="-147" width="70" height="40" as="geometry" />
        </mxCell>
        <mxCell id="0vVIQA6ZL_RiP2QNrMzl-72" value="&lt;font color=&quot;#ff0000&quot; style=&quot;font-size: 22px;&quot;&gt;Peripheral to memory&lt;/font&gt;" style="text;html=1;align=center;verticalAlign=middle;resizable=0;points=[];autosize=1;strokeColor=none;fillColor=none;" vertex="1" parent="1">
          <mxGeometry x="1340" y="-580" width="230" height="40" as="geometry" />
        </mxCell>
        <mxCell id="0vVIQA6ZL_RiP2QNrMzl-73" value="" style="rounded=0;whiteSpace=wrap;html=1;fillColor=none;dashed=1;strokeWidth=2;" vertex="1" parent="1">
          <mxGeometry x="-660" y="650" width="1300" height="560" as="geometry" />
        </mxCell>
        <mxCell id="0vVIQA6ZL_RiP2QNrMzl-74" style="edgeStyle=orthogonalEdgeStyle;rounded=0;orthogonalLoop=1;jettySize=auto;html=1;strokeWidth=2;" edge="1" parent="1" source="0vVIQA6ZL_RiP2QNrMzl-75">
          <mxGeometry relative="1" as="geometry">
            <mxPoint x="-410" y="1250" as="targetPoint" />
          </mxGeometry>
        </mxCell>
        <mxCell id="0vVIQA6ZL_RiP2QNrMzl-75" value="&lt;font style=&quot;font-size: 22px;&quot;&gt;CPU&lt;/font&gt;" style="rounded=0;whiteSpace=wrap;html=1;strokeWidth=2;" vertex="1" parent="1">
          <mxGeometry x="-470" y="550" width="120" height="60" as="geometry" />
        </mxCell>
        <mxCell id="0vVIQA6ZL_RiP2QNrMzl-76" style="edgeStyle=orthogonalEdgeStyle;rounded=0;orthogonalLoop=1;jettySize=auto;html=1;strokeWidth=2;" edge="1" parent="1" source="0vVIQA6ZL_RiP2QNrMzl-77">
          <mxGeometry relative="1" as="geometry">
            <mxPoint x="-150" y="1250" as="targetPoint" />
          </mxGeometry>
        </mxCell>
        <mxCell id="0vVIQA6ZL_RiP2QNrMzl-77" value="&lt;font style=&quot;font-size: 22px;&quot;&gt;DMAC&lt;/font&gt;" style="rounded=0;whiteSpace=wrap;html=1;strokeWidth=2;" vertex="1" parent="1">
          <mxGeometry x="-210" y="550" width="120" height="60" as="geometry" />
        </mxCell>
        <mxCell id="0vVIQA6ZL_RiP2QNrMzl-78" style="edgeStyle=orthogonalEdgeStyle;rounded=0;orthogonalLoop=1;jettySize=auto;html=1;strokeWidth=2;" edge="1" parent="1" source="0vVIQA6ZL_RiP2QNrMzl-79">
          <mxGeometry relative="1" as="geometry">
            <mxPoint x="90" y="1250" as="targetPoint" />
          </mxGeometry>
        </mxCell>
        <mxCell id="0vVIQA6ZL_RiP2QNrMzl-79" value="&lt;font style=&quot;font-size: 22px;&quot;&gt;BUS&lt;/font&gt;" style="rounded=0;whiteSpace=wrap;html=1;strokeWidth=2;" vertex="1" parent="1">
          <mxGeometry x="30" y="550" width="120" height="60" as="geometry" />
        </mxCell>
        <mxCell id="0vVIQA6ZL_RiP2QNrMzl-80" style="edgeStyle=orthogonalEdgeStyle;rounded=0;orthogonalLoop=1;jettySize=auto;html=1;strokeWidth=2;" edge="1" parent="1" source="0vVIQA6ZL_RiP2QNrMzl-81">
          <mxGeometry relative="1" as="geometry">
            <mxPoint x="330" y="1250" as="targetPoint" />
          </mxGeometry>
        </mxCell>
        <mxCell id="0vVIQA6ZL_RiP2QNrMzl-81" value="&lt;span style=&quot;font-size: 22px;&quot;&gt;Peripheral&lt;/span&gt;" style="rounded=0;whiteSpace=wrap;html=1;strokeWidth=2;" vertex="1" parent="1">
          <mxGeometry x="270" y="550" width="120" height="60" as="geometry" />
        </mxCell>
        <mxCell id="0vVIQA6ZL_RiP2QNrMzl-82" style="edgeStyle=orthogonalEdgeStyle;rounded=0;orthogonalLoop=1;jettySize=auto;html=1;strokeWidth=2;" edge="1" parent="1" source="0vVIQA6ZL_RiP2QNrMzl-83">
          <mxGeometry relative="1" as="geometry">
            <mxPoint x="560" y="1250" as="targetPoint" />
          </mxGeometry>
        </mxCell>
        <mxCell id="0vVIQA6ZL_RiP2QNrMzl-83" value="&lt;span style=&quot;font-size: 22px;&quot;&gt;Peripheral&lt;/span&gt;" style="rounded=0;whiteSpace=wrap;html=1;strokeWidth=2;" vertex="1" parent="1">
          <mxGeometry x="500" y="550" width="120" height="60" as="geometry" />
        </mxCell>
        <mxCell id="0vVIQA6ZL_RiP2QNrMzl-84" value="" style="endArrow=classic;html=1;rounded=0;strokeWidth=2;" edge="1" parent="1">
          <mxGeometry width="50" height="50" relative="1" as="geometry">
            <mxPoint x="-410" y="690" as="sourcePoint" />
            <mxPoint x="-150" y="690" as="targetPoint" />
          </mxGeometry>
        </mxCell>
        <mxCell id="0vVIQA6ZL_RiP2QNrMzl-85" value="&lt;font style=&quot;font-size: 22px;&quot;&gt;Setting DMAC&lt;/font&gt;" style="text;html=1;align=center;verticalAlign=middle;resizable=0;points=[];autosize=1;strokeColor=none;fillColor=none;" vertex="1" parent="1">
          <mxGeometry x="-360" y="650" width="160" height="40" as="geometry" />
        </mxCell>
        <mxCell id="0vVIQA6ZL_RiP2QNrMzl-86" value="" style="endArrow=classic;html=1;rounded=0;jumpStyle=arc;strokeWidth=2;jumpSize=14;" edge="1" parent="1">
          <mxGeometry width="50" height="50" relative="1" as="geometry">
            <mxPoint x="560" y="730" as="sourcePoint" />
            <mxPoint x="-150" y="730" as="targetPoint" />
          </mxGeometry>
        </mxCell>
        <mxCell id="0vVIQA6ZL_RiP2QNrMzl-87" value="&lt;font style=&quot;font-size: 22px;&quot;&gt;Request DMA&lt;/font&gt;" style="text;html=1;align=center;verticalAlign=middle;resizable=0;points=[];autosize=1;strokeColor=none;fillColor=none;" vertex="1" parent="1">
          <mxGeometry x="370" y="690" width="160" height="40" as="geometry" />
        </mxCell>
        <mxCell id="0vVIQA6ZL_RiP2QNrMzl-88" value="" style="endArrow=classic;html=1;rounded=0;strokeWidth=2;" edge="1" parent="1">
          <mxGeometry width="50" height="50" relative="1" as="geometry">
            <mxPoint x="-150" y="810" as="sourcePoint" />
            <mxPoint x="90" y="810" as="targetPoint" />
          </mxGeometry>
        </mxCell>
        <mxCell id="0vVIQA6ZL_RiP2QNrMzl-89" value="&lt;font style=&quot;font-size: 22px;&quot;&gt;Request read trans&lt;/font&gt;" style="text;html=1;align=center;verticalAlign=middle;resizable=0;points=[];autosize=1;strokeColor=none;fillColor=none;" vertex="1" parent="1">
          <mxGeometry x="-140" y="770" width="210" height="40" as="geometry" />
        </mxCell>
        <mxCell id="0vVIQA6ZL_RiP2QNrMzl-90" value="" style="endArrow=classic;html=1;rounded=0;strokeWidth=2;" edge="1" parent="1">
          <mxGeometry width="50" height="50" relative="1" as="geometry">
            <mxPoint x="90" y="810" as="sourcePoint" />
            <mxPoint x="330" y="810" as="targetPoint" />
          </mxGeometry>
        </mxCell>
        <mxCell id="0vVIQA6ZL_RiP2QNrMzl-91" value="&lt;font style=&quot;font-size: 22px;&quot;&gt;Forward read trans&lt;/font&gt;" style="text;html=1;align=center;verticalAlign=middle;resizable=0;points=[];autosize=1;strokeColor=none;fillColor=none;" vertex="1" parent="1">
          <mxGeometry x="105" y="770" width="210" height="40" as="geometry" />
        </mxCell>
        <mxCell id="0vVIQA6ZL_RiP2QNrMzl-92" value="" style="endArrow=classic;html=1;rounded=0;strokeWidth=2;" edge="1" parent="1">
          <mxGeometry width="50" height="50" relative="1" as="geometry">
            <mxPoint x="330" y="890" as="sourcePoint" />
            <mxPoint x="90" y="890" as="targetPoint" />
          </mxGeometry>
        </mxCell>
        <mxCell id="0vVIQA6ZL_RiP2QNrMzl-93" value="&lt;font style=&quot;font-size: 22px;&quot;&gt;Return Data&lt;/font&gt;" style="text;html=1;align=center;verticalAlign=middle;resizable=0;points=[];autosize=1;strokeColor=none;fillColor=none;" vertex="1" parent="1">
          <mxGeometry x="140" y="850" width="140" height="40" as="geometry" />
        </mxCell>
        <mxCell id="0vVIQA6ZL_RiP2QNrMzl-94" value="" style="endArrow=classic;html=1;rounded=0;strokeWidth=2;" edge="1" parent="1">
          <mxGeometry width="50" height="50" relative="1" as="geometry">
            <mxPoint x="90" y="890" as="sourcePoint" />
            <mxPoint x="-150" y="890" as="targetPoint" />
          </mxGeometry>
        </mxCell>
        <mxCell id="0vVIQA6ZL_RiP2QNrMzl-95" value="&lt;font style=&quot;font-size: 22px;&quot;&gt;Return Data&lt;/font&gt;" style="text;html=1;align=center;verticalAlign=middle;resizable=0;points=[];autosize=1;strokeColor=none;fillColor=none;" vertex="1" parent="1">
          <mxGeometry x="-100" y="850" width="140" height="40" as="geometry" />
        </mxCell>
        <mxCell id="0vVIQA6ZL_RiP2QNrMzl-96" value="" style="endArrow=classic;html=1;rounded=0;strokeWidth=2;" edge="1" parent="1">
          <mxGeometry width="50" height="50" relative="1" as="geometry">
            <mxPoint x="-150" y="970" as="sourcePoint" />
            <mxPoint x="90" y="970" as="targetPoint" />
          </mxGeometry>
        </mxCell>
        <mxCell id="0vVIQA6ZL_RiP2QNrMzl-97" value="&lt;font style=&quot;font-size: 22px;&quot;&gt;Request write trans&lt;/font&gt;" style="text;html=1;align=center;verticalAlign=middle;resizable=0;points=[];autosize=1;strokeColor=none;fillColor=none;" vertex="1" parent="1">
          <mxGeometry x="-135" y="930" width="210" height="40" as="geometry" />
        </mxCell>
        <mxCell id="0vVIQA6ZL_RiP2QNrMzl-98" value="" style="endArrow=classic;html=1;rounded=0;strokeWidth=2;jumpStyle=arc;jumpSize=14;" edge="1" parent="1">
          <mxGeometry width="50" height="50" relative="1" as="geometry">
            <mxPoint x="90" y="970" as="sourcePoint" />
            <mxPoint x="560" y="970" as="targetPoint" />
          </mxGeometry>
        </mxCell>
        <mxCell id="0vVIQA6ZL_RiP2QNrMzl-99" value="&lt;font style=&quot;font-size: 22px;&quot;&gt;Forward write trans&lt;/font&gt;" style="text;html=1;align=center;verticalAlign=middle;resizable=0;points=[];autosize=1;strokeColor=none;fillColor=none;" vertex="1" parent="1">
          <mxGeometry x="105" y="930" width="210" height="40" as="geometry" />
        </mxCell>
        <mxCell id="0vVIQA6ZL_RiP2QNrMzl-100" value="" style="endArrow=classic;html=1;rounded=0;strokeWidth=2;jumpSize=14;jumpStyle=arc;" edge="1" parent="1">
          <mxGeometry width="50" height="50" relative="1" as="geometry">
            <mxPoint x="560" y="1050" as="sourcePoint" />
            <mxPoint x="90" y="1050" as="targetPoint" />
          </mxGeometry>
        </mxCell>
        <mxCell id="0vVIQA6ZL_RiP2QNrMzl-101" value="&lt;font style=&quot;font-size: 22px;&quot;&gt;Return END_REQ&lt;/font&gt;" style="text;html=1;align=center;verticalAlign=middle;resizable=0;points=[];autosize=1;strokeColor=none;fillColor=none;" vertex="1" parent="1">
          <mxGeometry x="360" y="1013" width="200" height="40" as="geometry" />
        </mxCell>
        <mxCell id="0vVIQA6ZL_RiP2QNrMzl-102" value="" style="endArrow=classic;html=1;rounded=0;strokeWidth=2;" edge="1" parent="1">
          <mxGeometry width="50" height="50" relative="1" as="geometry">
            <mxPoint x="90" y="1050" as="sourcePoint" />
            <mxPoint x="-150" y="1050" as="targetPoint" />
          </mxGeometry>
        </mxCell>
        <mxCell id="0vVIQA6ZL_RiP2QNrMzl-103" value="&lt;font style=&quot;font-size: 22px;&quot;&gt;Return END_REQ&lt;/font&gt;" style="text;html=1;align=center;verticalAlign=middle;resizable=0;points=[];autosize=1;strokeColor=none;fillColor=none;" vertex="1" parent="1">
          <mxGeometry x="-120" y="1013" width="200" height="40" as="geometry" />
        </mxCell>
        <mxCell id="0vVIQA6ZL_RiP2QNrMzl-104" value="" style="endArrow=classic;html=1;rounded=0;strokeWidth=2;jumpSize=14;jumpStyle=arc;" edge="1" parent="1">
          <mxGeometry width="50" height="50" relative="1" as="geometry">
            <mxPoint x="-150" y="1130" as="sourcePoint" />
            <mxPoint x="560" y="1130" as="targetPoint" />
          </mxGeometry>
        </mxCell>
        <mxCell id="0vVIQA6ZL_RiP2QNrMzl-105" value="&lt;font style=&quot;font-size: 22px;&quot;&gt;ACK&lt;/font&gt;" style="text;html=1;align=center;verticalAlign=middle;resizable=0;points=[];autosize=1;strokeColor=none;fillColor=none;" vertex="1" parent="1">
          <mxGeometry x="-125" y="1093" width="70" height="40" as="geometry" />
        </mxCell>
        <mxCell id="0vVIQA6ZL_RiP2QNrMzl-106" value="&lt;font color=&quot;#ff0000&quot; style=&quot;font-size: 22px;&quot;&gt;Peripheral to peripheral&lt;/font&gt;" style="text;html=1;align=center;verticalAlign=middle;resizable=0;points=[];autosize=1;strokeColor=none;fillColor=none;" vertex="1" parent="1">
          <mxGeometry x="-660" y="660" width="250" height="40" as="geometry" />
        </mxCell>
        <mxCell id="0vVIQA6ZL_RiP2QNrMzl-107" value="" style="rounded=0;whiteSpace=wrap;html=1;fillColor=none;dashed=1;strokeWidth=2;" vertex="1" parent="1">
          <mxGeometry x="1290" y="620" width="1300" height="560" as="geometry" />
        </mxCell>
        <mxCell id="0vVIQA6ZL_RiP2QNrMzl-108" style="edgeStyle=orthogonalEdgeStyle;rounded=0;orthogonalLoop=1;jettySize=auto;html=1;strokeWidth=2;" edge="1" parent="1" source="0vVIQA6ZL_RiP2QNrMzl-109">
          <mxGeometry relative="1" as="geometry">
            <mxPoint x="1540" y="1220" as="targetPoint" />
          </mxGeometry>
        </mxCell>
        <mxCell id="0vVIQA6ZL_RiP2QNrMzl-109" value="&lt;font style=&quot;font-size: 22px;&quot;&gt;CPU&lt;/font&gt;" style="rounded=0;whiteSpace=wrap;html=1;strokeWidth=2;" vertex="1" parent="1">
          <mxGeometry x="1480" y="520" width="120" height="60" as="geometry" />
        </mxCell>
        <mxCell id="0vVIQA6ZL_RiP2QNrMzl-110" style="edgeStyle=orthogonalEdgeStyle;rounded=0;orthogonalLoop=1;jettySize=auto;html=1;strokeWidth=2;" edge="1" parent="1" source="0vVIQA6ZL_RiP2QNrMzl-111">
          <mxGeometry relative="1" as="geometry">
            <mxPoint x="1800" y="1220" as="targetPoint" />
          </mxGeometry>
        </mxCell>
        <mxCell id="0vVIQA6ZL_RiP2QNrMzl-111" value="&lt;font style=&quot;font-size: 22px;&quot;&gt;DMAC&lt;/font&gt;" style="rounded=0;whiteSpace=wrap;html=1;strokeWidth=2;" vertex="1" parent="1">
          <mxGeometry x="1740" y="520" width="120" height="60" as="geometry" />
        </mxCell>
        <mxCell id="0vVIQA6ZL_RiP2QNrMzl-112" style="edgeStyle=orthogonalEdgeStyle;rounded=0;orthogonalLoop=1;jettySize=auto;html=1;strokeWidth=2;" edge="1" parent="1" source="0vVIQA6ZL_RiP2QNrMzl-113">
          <mxGeometry relative="1" as="geometry">
            <mxPoint x="2040" y="1220" as="targetPoint" />
          </mxGeometry>
        </mxCell>
        <mxCell id="0vVIQA6ZL_RiP2QNrMzl-113" value="&lt;font style=&quot;font-size: 22px;&quot;&gt;BUS&lt;/font&gt;" style="rounded=0;whiteSpace=wrap;html=1;strokeWidth=2;" vertex="1" parent="1">
          <mxGeometry x="1980" y="520" width="120" height="60" as="geometry" />
        </mxCell>
        <mxCell id="0vVIQA6ZL_RiP2QNrMzl-114" style="edgeStyle=orthogonalEdgeStyle;rounded=0;orthogonalLoop=1;jettySize=auto;html=1;strokeWidth=2;" edge="1" parent="1" source="0vVIQA6ZL_RiP2QNrMzl-115">
          <mxGeometry relative="1" as="geometry">
            <mxPoint x="2280" y="1220" as="targetPoint" />
          </mxGeometry>
        </mxCell>
        <mxCell id="0vVIQA6ZL_RiP2QNrMzl-115" value="&lt;span style=&quot;font-size: 22px;&quot;&gt;Memory&lt;/span&gt;" style="rounded=0;whiteSpace=wrap;html=1;strokeWidth=2;" vertex="1" parent="1">
          <mxGeometry x="2220" y="520" width="120" height="60" as="geometry" />
        </mxCell>
        <mxCell id="0vVIQA6ZL_RiP2QNrMzl-116" style="edgeStyle=orthogonalEdgeStyle;rounded=0;orthogonalLoop=1;jettySize=auto;html=1;strokeWidth=2;" edge="1" parent="1" source="0vVIQA6ZL_RiP2QNrMzl-117">
          <mxGeometry relative="1" as="geometry">
            <mxPoint x="2510" y="1220" as="targetPoint" />
          </mxGeometry>
        </mxCell>
        <mxCell id="0vVIQA6ZL_RiP2QNrMzl-117" value="&lt;span style=&quot;font-size: 22px;&quot;&gt;Memory&lt;/span&gt;" style="rounded=0;whiteSpace=wrap;html=1;strokeWidth=2;" vertex="1" parent="1">
          <mxGeometry x="2450" y="520" width="120" height="60" as="geometry" />
        </mxCell>
        <mxCell id="0vVIQA6ZL_RiP2QNrMzl-118" value="" style="endArrow=classic;html=1;rounded=0;strokeWidth=2;" edge="1" parent="1">
          <mxGeometry width="50" height="50" relative="1" as="geometry">
            <mxPoint x="1540" y="660" as="sourcePoint" />
            <mxPoint x="1800" y="660" as="targetPoint" />
          </mxGeometry>
        </mxCell>
        <mxCell id="0vVIQA6ZL_RiP2QNrMzl-119" value="&lt;font style=&quot;font-size: 22px;&quot;&gt;Setting DMAC&lt;/font&gt;" style="text;html=1;align=center;verticalAlign=middle;resizable=0;points=[];autosize=1;strokeColor=none;fillColor=none;" vertex="1" parent="1">
          <mxGeometry x="1590" y="620" width="160" height="40" as="geometry" />
        </mxCell>
        <mxCell id="0vVIQA6ZL_RiP2QNrMzl-120" value="" style="endArrow=classic;html=1;rounded=0;jumpStyle=arc;strokeWidth=2;jumpSize=14;" edge="1" parent="1">
          <mxGeometry width="50" height="50" relative="1" as="geometry">
            <mxPoint x="2510" y="700" as="sourcePoint" />
            <mxPoint x="1800" y="700" as="targetPoint" />
          </mxGeometry>
        </mxCell>
        <mxCell id="0vVIQA6ZL_RiP2QNrMzl-121" value="&lt;font style=&quot;font-size: 22px;&quot;&gt;Request DMA&lt;/font&gt;" style="text;html=1;align=center;verticalAlign=middle;resizable=0;points=[];autosize=1;strokeColor=none;fillColor=none;" vertex="1" parent="1">
          <mxGeometry x="2320" y="660" width="160" height="40" as="geometry" />
        </mxCell>
        <mxCell id="0vVIQA6ZL_RiP2QNrMzl-122" value="" style="endArrow=classic;html=1;rounded=0;strokeWidth=2;" edge="1" parent="1">
          <mxGeometry width="50" height="50" relative="1" as="geometry">
            <mxPoint x="1800" y="780" as="sourcePoint" />
            <mxPoint x="2040" y="780" as="targetPoint" />
          </mxGeometry>
        </mxCell>
        <mxCell id="0vVIQA6ZL_RiP2QNrMzl-123" value="&lt;font style=&quot;font-size: 22px;&quot;&gt;Request read trans&lt;/font&gt;" style="text;html=1;align=center;verticalAlign=middle;resizable=0;points=[];autosize=1;strokeColor=none;fillColor=none;" vertex="1" parent="1">
          <mxGeometry x="1810" y="740" width="210" height="40" as="geometry" />
        </mxCell>
        <mxCell id="0vVIQA6ZL_RiP2QNrMzl-124" value="" style="endArrow=classic;html=1;rounded=0;strokeWidth=2;" edge="1" parent="1">
          <mxGeometry width="50" height="50" relative="1" as="geometry">
            <mxPoint x="2040" y="780" as="sourcePoint" />
            <mxPoint x="2280" y="780" as="targetPoint" />
          </mxGeometry>
        </mxCell>
        <mxCell id="0vVIQA6ZL_RiP2QNrMzl-125" value="&lt;font style=&quot;font-size: 22px;&quot;&gt;Forward read trans&lt;/font&gt;" style="text;html=1;align=center;verticalAlign=middle;resizable=0;points=[];autosize=1;strokeColor=none;fillColor=none;" vertex="1" parent="1">
          <mxGeometry x="2055" y="740" width="210" height="40" as="geometry" />
        </mxCell>
        <mxCell id="0vVIQA6ZL_RiP2QNrMzl-126" value="" style="endArrow=classic;html=1;rounded=0;strokeWidth=2;" edge="1" parent="1">
          <mxGeometry width="50" height="50" relative="1" as="geometry">
            <mxPoint x="2280" y="860" as="sourcePoint" />
            <mxPoint x="2040" y="860" as="targetPoint" />
          </mxGeometry>
        </mxCell>
        <mxCell id="0vVIQA6ZL_RiP2QNrMzl-127" value="&lt;font style=&quot;font-size: 22px;&quot;&gt;Return Data&lt;/font&gt;" style="text;html=1;align=center;verticalAlign=middle;resizable=0;points=[];autosize=1;strokeColor=none;fillColor=none;" vertex="1" parent="1">
          <mxGeometry x="2090" y="820" width="140" height="40" as="geometry" />
        </mxCell>
        <mxCell id="0vVIQA6ZL_RiP2QNrMzl-128" value="" style="endArrow=classic;html=1;rounded=0;strokeWidth=2;" edge="1" parent="1">
          <mxGeometry width="50" height="50" relative="1" as="geometry">
            <mxPoint x="2040" y="860" as="sourcePoint" />
            <mxPoint x="1800" y="860" as="targetPoint" />
          </mxGeometry>
        </mxCell>
        <mxCell id="0vVIQA6ZL_RiP2QNrMzl-129" value="&lt;font style=&quot;font-size: 22px;&quot;&gt;Return Data&lt;/font&gt;" style="text;html=1;align=center;verticalAlign=middle;resizable=0;points=[];autosize=1;strokeColor=none;fillColor=none;" vertex="1" parent="1">
          <mxGeometry x="1850" y="820" width="140" height="40" as="geometry" />
        </mxCell>
        <mxCell id="0vVIQA6ZL_RiP2QNrMzl-130" value="" style="endArrow=classic;html=1;rounded=0;strokeWidth=2;" edge="1" parent="1">
          <mxGeometry width="50" height="50" relative="1" as="geometry">
            <mxPoint x="1800" y="940" as="sourcePoint" />
            <mxPoint x="2040" y="940" as="targetPoint" />
          </mxGeometry>
        </mxCell>
        <mxCell id="0vVIQA6ZL_RiP2QNrMzl-131" value="&lt;font style=&quot;font-size: 22px;&quot;&gt;Request write trans&lt;/font&gt;" style="text;html=1;align=center;verticalAlign=middle;resizable=0;points=[];autosize=1;strokeColor=none;fillColor=none;" vertex="1" parent="1">
          <mxGeometry x="1815" y="900" width="210" height="40" as="geometry" />
        </mxCell>
        <mxCell id="0vVIQA6ZL_RiP2QNrMzl-132" value="" style="endArrow=classic;html=1;rounded=0;strokeWidth=2;jumpStyle=arc;jumpSize=14;" edge="1" parent="1">
          <mxGeometry width="50" height="50" relative="1" as="geometry">
            <mxPoint x="2040" y="940" as="sourcePoint" />
            <mxPoint x="2510" y="940" as="targetPoint" />
          </mxGeometry>
        </mxCell>
        <mxCell id="0vVIQA6ZL_RiP2QNrMzl-133" value="&lt;font style=&quot;font-size: 22px;&quot;&gt;Forward write trans&lt;/font&gt;" style="text;html=1;align=center;verticalAlign=middle;resizable=0;points=[];autosize=1;strokeColor=none;fillColor=none;" vertex="1" parent="1">
          <mxGeometry x="2055" y="900" width="210" height="40" as="geometry" />
        </mxCell>
        <mxCell id="0vVIQA6ZL_RiP2QNrMzl-134" value="" style="endArrow=classic;html=1;rounded=0;strokeWidth=2;jumpSize=14;jumpStyle=arc;" edge="1" parent="1">
          <mxGeometry width="50" height="50" relative="1" as="geometry">
            <mxPoint x="2510" y="1020" as="sourcePoint" />
            <mxPoint x="2040" y="1020" as="targetPoint" />
          </mxGeometry>
        </mxCell>
        <mxCell id="0vVIQA6ZL_RiP2QNrMzl-135" value="&lt;font style=&quot;font-size: 22px;&quot;&gt;Return END_REQ&lt;/font&gt;" style="text;html=1;align=center;verticalAlign=middle;resizable=0;points=[];autosize=1;strokeColor=none;fillColor=none;" vertex="1" parent="1">
          <mxGeometry x="2310" y="983" width="200" height="40" as="geometry" />
        </mxCell>
        <mxCell id="0vVIQA6ZL_RiP2QNrMzl-136" value="" style="endArrow=classic;html=1;rounded=0;strokeWidth=2;" edge="1" parent="1">
          <mxGeometry width="50" height="50" relative="1" as="geometry">
            <mxPoint x="2040" y="1020" as="sourcePoint" />
            <mxPoint x="1800" y="1020" as="targetPoint" />
          </mxGeometry>
        </mxCell>
        <mxCell id="0vVIQA6ZL_RiP2QNrMzl-137" value="&lt;font style=&quot;font-size: 22px;&quot;&gt;Return END_REQ&lt;/font&gt;" style="text;html=1;align=center;verticalAlign=middle;resizable=0;points=[];autosize=1;strokeColor=none;fillColor=none;" vertex="1" parent="1">
          <mxGeometry x="1830" y="983" width="200" height="40" as="geometry" />
        </mxCell>
        <mxCell id="0vVIQA6ZL_RiP2QNrMzl-138" value="" style="endArrow=classic;html=1;rounded=0;strokeWidth=2;jumpSize=14;jumpStyle=arc;" edge="1" parent="1">
          <mxGeometry width="50" height="50" relative="1" as="geometry">
            <mxPoint x="1800" y="1100" as="sourcePoint" />
            <mxPoint x="2510" y="1100" as="targetPoint" />
          </mxGeometry>
        </mxCell>
        <mxCell id="0vVIQA6ZL_RiP2QNrMzl-139" value="&lt;font style=&quot;font-size: 22px;&quot;&gt;ACK&lt;/font&gt;" style="text;html=1;align=center;verticalAlign=middle;resizable=0;points=[];autosize=1;strokeColor=none;fillColor=none;" vertex="1" parent="1">
          <mxGeometry x="1825" y="1063" width="70" height="40" as="geometry" />
        </mxCell>
        <mxCell id="0vVIQA6ZL_RiP2QNrMzl-140" value="&lt;font color=&quot;#ff0000&quot; style=&quot;font-size: 22px;&quot;&gt;Memory to memory&lt;/font&gt;" style="text;html=1;align=center;verticalAlign=middle;resizable=0;points=[];autosize=1;strokeColor=none;fillColor=none;" vertex="1" parent="1">
          <mxGeometry x="1310" y="630" width="210" height="40" as="geometry" />
        </mxCell>
      </root>
    </mxGraphModel>
  </diagram>
  <diagram id="7k_CNilnFQRDOHm5v4ib" name="MAC overview">
    <mxGraphModel dx="1509" dy="1280" grid="0" gridSize="10" guides="1" tooltips="1" connect="1" arrows="1" fold="1" page="0" pageScale="1" pageWidth="850" pageHeight="1100" math="0" shadow="0">
      <root>
        <mxCell id="0" />
        <mxCell id="1" parent="0" />
        <mxCell id="vmLAb0V-5SANhqbDNb4d-1" value="" style="rounded=0;whiteSpace=wrap;html=1;fillColor=#eeeeee;strokeColor=#36393d;strokeWidth=2;" vertex="1" parent="1">
          <mxGeometry x="230" y="-130" width="800" height="740" as="geometry" />
        </mxCell>
        <mxCell id="vmLAb0V-5SANhqbDNb4d-2" style="edgeStyle=orthogonalEdgeStyle;rounded=0;orthogonalLoop=1;jettySize=auto;html=1;entryX=0.5;entryY=1;entryDx=0;entryDy=0;startArrow=classic;startFill=1;dashed=1;strokeWidth=2;" edge="1" parent="1" source="vmLAb0V-5SANhqbDNb4d-3" target="vmLAb0V-5SANhqbDNb4d-5">
          <mxGeometry relative="1" as="geometry" />
        </mxCell>
        <mxCell id="vmLAb0V-5SANhqbDNb4d-3" value="&lt;font style=&quot;font-size: 16px;&quot;&gt;Register Interface&lt;/font&gt;" style="rounded=0;whiteSpace=wrap;html=1;direction=south;strokeWidth=2;" vertex="1" parent="1">
          <mxGeometry x="440" y="-80" width="90" height="120" as="geometry" />
        </mxCell>
        <mxCell id="vmLAb0V-5SANhqbDNb4d-4" style="edgeStyle=orthogonalEdgeStyle;rounded=0;orthogonalLoop=1;jettySize=auto;html=1;entryX=0.5;entryY=0;entryDx=0;entryDy=0;dashed=1;strokeWidth=2;" edge="1" parent="1" source="vmLAb0V-5SANhqbDNb4d-5" target="vmLAb0V-5SANhqbDNb4d-9">
          <mxGeometry relative="1" as="geometry" />
        </mxCell>
        <mxCell id="vmLAb0V-5SANhqbDNb4d-5" value="&lt;font style=&quot;font-size: 18px;&quot;&gt;DMA Register&lt;/font&gt;" style="rounded=0;whiteSpace=wrap;html=1;direction=south;strokeWidth=2;" vertex="1" parent="1">
          <mxGeometry x="675" y="-80" width="90" height="120" as="geometry" />
        </mxCell>
        <mxCell id="vmLAb0V-5SANhqbDNb4d-6" style="edgeStyle=orthogonalEdgeStyle;rounded=0;orthogonalLoop=1;jettySize=auto;html=1;entryX=0;entryY=0.5;entryDx=0;entryDy=0;dashed=1;startArrow=classic;startFill=1;strokeWidth=2;" edge="1" parent="1" source="vmLAb0V-5SANhqbDNb4d-9" target="vmLAb0V-5SANhqbDNb4d-23">
          <mxGeometry relative="1" as="geometry" />
        </mxCell>
        <mxCell id="vmLAb0V-5SANhqbDNb4d-7" style="edgeStyle=orthogonalEdgeStyle;rounded=0;orthogonalLoop=1;jettySize=auto;html=1;strokeWidth=2;dashed=1;" edge="1" parent="1" source="vmLAb0V-5SANhqbDNb4d-9" target="vmLAb0V-5SANhqbDNb4d-25">
          <mxGeometry relative="1" as="geometry" />
        </mxCell>
        <mxCell id="vmLAb0V-5SANhqbDNb4d-8" style="edgeStyle=orthogonalEdgeStyle;rounded=0;orthogonalLoop=1;jettySize=auto;html=1;entryX=1;entryY=0.5;entryDx=0;entryDy=0;startArrow=classic;startFill=1;strokeWidth=2;dashed=1;" edge="1" parent="1" source="vmLAb0V-5SANhqbDNb4d-9" target="vmLAb0V-5SANhqbDNb4d-37">
          <mxGeometry relative="1" as="geometry">
            <Array as="points">
              <mxPoint x="720" y="360" />
              <mxPoint x="533" y="360" />
              <mxPoint x="533" y="520" />
            </Array>
          </mxGeometry>
        </mxCell>
        <mxCell id="vmLAb0V-5SANhqbDNb4d-9" value="&lt;font style=&quot;font-size: 18px;&quot;&gt;DMA control process&lt;/font&gt;" style="rounded=0;whiteSpace=wrap;html=1;strokeWidth=2;" vertex="1" parent="1">
          <mxGeometry x="660" y="230" width="120" height="60" as="geometry" />
        </mxCell>
        <mxCell id="vmLAb0V-5SANhqbDNb4d-10" style="edgeStyle=orthogonalEdgeStyle;rounded=0;orthogonalLoop=1;jettySize=auto;html=1;entryX=0;entryY=0.5;entryDx=0;entryDy=0;startArrow=classic;startFill=1;dashed=1;strokeWidth=2;" edge="1" parent="1" source="vmLAb0V-5SANhqbDNb4d-11" target="vmLAb0V-5SANhqbDNb4d-9">
          <mxGeometry relative="1" as="geometry" />
        </mxCell>
        <mxCell id="vmLAb0V-5SANhqbDNb4d-11" value="&lt;font style=&quot;font-size: 18px;&quot;&gt;Priority arbiter&amp;nbsp;&lt;/font&gt;" style="rounded=0;whiteSpace=wrap;html=1;strokeWidth=2;" vertex="1" parent="1">
          <mxGeometry x="480" y="230" width="120" height="60" as="geometry" />
        </mxCell>
        <mxCell id="vmLAb0V-5SANhqbDNb4d-12" style="edgeStyle=orthogonalEdgeStyle;rounded=0;orthogonalLoop=1;jettySize=auto;html=1;entryX=0;entryY=0.5;entryDx=0;entryDy=0;startArrow=none;startFill=0;strokeWidth=2;dashed=1;" edge="1" parent="1" source="vmLAb0V-5SANhqbDNb4d-13" target="vmLAb0V-5SANhqbDNb4d-11">
          <mxGeometry relative="1" as="geometry" />
        </mxCell>
        <mxCell id="vmLAb0V-5SANhqbDNb4d-13" value="" style="rounded=0;whiteSpace=wrap;html=1;strokeWidth=2;" vertex="1" parent="1">
          <mxGeometry x="290" y="100" width="120" height="320" as="geometry" />
        </mxCell>
        <mxCell id="vmLAb0V-5SANhqbDNb4d-14" value="&lt;font style=&quot;font-size: 18px;&quot;&gt;Ch0&lt;/font&gt;" style="rounded=0;whiteSpace=wrap;html=1;strokeWidth=2;" vertex="1" parent="1">
          <mxGeometry x="325" y="160" width="50" height="20" as="geometry" />
        </mxCell>
        <mxCell id="vmLAb0V-5SANhqbDNb4d-15" value="&lt;font style=&quot;font-size: 18px;&quot;&gt;Ch1&lt;/font&gt;" style="rounded=0;whiteSpace=wrap;html=1;strokeWidth=2;" vertex="1" parent="1">
          <mxGeometry x="325" y="190" width="50" height="20" as="geometry" />
        </mxCell>
        <mxCell id="vmLAb0V-5SANhqbDNb4d-16" value="&lt;font style=&quot;font-size: 18px;&quot;&gt;Ch2&lt;/font&gt;" style="rounded=0;whiteSpace=wrap;html=1;strokeWidth=2;" vertex="1" parent="1">
          <mxGeometry x="325" y="220" width="50" height="20" as="geometry" />
        </mxCell>
        <mxCell id="vmLAb0V-5SANhqbDNb4d-17" value="&lt;font style=&quot;font-size: 18px;&quot;&gt;Ch3&lt;/font&gt;" style="rounded=0;whiteSpace=wrap;html=1;strokeWidth=2;" vertex="1" parent="1">
          <mxGeometry x="325" y="250" width="50" height="20" as="geometry" />
        </mxCell>
        <mxCell id="vmLAb0V-5SANhqbDNb4d-18" value="&lt;font style=&quot;font-size: 18px;&quot;&gt;Ch4&lt;/font&gt;" style="rounded=0;whiteSpace=wrap;html=1;strokeWidth=2;" vertex="1" parent="1">
          <mxGeometry x="325" y="280" width="50" height="20" as="geometry" />
        </mxCell>
        <mxCell id="vmLAb0V-5SANhqbDNb4d-19" value="&lt;font style=&quot;font-size: 18px;&quot;&gt;Ch5&lt;/font&gt;" style="rounded=0;whiteSpace=wrap;html=1;strokeWidth=2;" vertex="1" parent="1">
          <mxGeometry x="325" y="310" width="50" height="20" as="geometry" />
        </mxCell>
        <mxCell id="vmLAb0V-5SANhqbDNb4d-20" value="&lt;font style=&quot;font-size: 18px;&quot;&gt;Ch255&lt;/font&gt;" style="rounded=0;whiteSpace=wrap;html=1;strokeWidth=2;" vertex="1" parent="1">
          <mxGeometry x="325" y="370" width="55" height="20" as="geometry" />
        </mxCell>
        <mxCell id="vmLAb0V-5SANhqbDNb4d-21" value="&lt;font style=&quot;font-size: 18px;&quot;&gt;...&lt;/font&gt;" style="text;html=1;align=center;verticalAlign=middle;resizable=0;points=[];autosize=1;strokeColor=none;fillColor=none;strokeWidth=2;" vertex="1" parent="1">
          <mxGeometry x="330" y="330" width="40" height="40" as="geometry" />
        </mxCell>
        <mxCell id="vmLAb0V-5SANhqbDNb4d-22" value="&lt;font style=&quot;font-size: 16px;&quot;&gt;DMA channels&lt;/font&gt;" style="text;html=1;align=center;verticalAlign=middle;resizable=0;points=[];autosize=1;strokeColor=none;fillColor=none;" vertex="1" parent="1">
          <mxGeometry x="285" y="110" width="130" height="30" as="geometry" />
        </mxCell>
        <mxCell id="vmLAb0V-5SANhqbDNb4d-23" value="&lt;font style=&quot;font-size: 18px;&quot;&gt;Master Interface&lt;/font&gt;" style="rounded=0;whiteSpace=wrap;html=1;strokeWidth=2;" vertex="1" parent="1">
          <mxGeometry x="840" y="195" width="80" height="130" as="geometry" />
        </mxCell>
        <mxCell id="vmLAb0V-5SANhqbDNb4d-24" style="edgeStyle=orthogonalEdgeStyle;rounded=0;orthogonalLoop=1;jettySize=auto;html=1;strokeWidth=2;" edge="1" parent="1" source="vmLAb0V-5SANhqbDNb4d-25">
          <mxGeometry relative="1" as="geometry">
            <mxPoint x="1180" y="450" as="targetPoint" />
          </mxGeometry>
        </mxCell>
        <mxCell id="vmLAb0V-5SANhqbDNb4d-25" value="&lt;font style=&quot;font-size: 16px;&quot;&gt;Interrupt&lt;/font&gt;" style="rounded=0;whiteSpace=wrap;html=1;strokeWidth=2;" vertex="1" parent="1">
          <mxGeometry x="660" y="420" width="120" height="60" as="geometry" />
        </mxCell>
        <mxCell id="vmLAb0V-5SANhqbDNb4d-26" style="edgeStyle=orthogonalEdgeStyle;rounded=0;orthogonalLoop=1;jettySize=auto;html=1;entryX=0.5;entryY=1;entryDx=0;entryDy=0;dashed=1;startArrow=classic;startFill=1;shape=flexArrow;strokeWidth=2;" edge="1" parent="1" source="vmLAb0V-5SANhqbDNb4d-27" target="vmLAb0V-5SANhqbDNb4d-3">
          <mxGeometry relative="1" as="geometry" />
        </mxCell>
        <mxCell id="vmLAb0V-5SANhqbDNb4d-27" value="" style="whiteSpace=wrap;html=1;aspect=fixed;fillColor=#f5f5f5;gradientColor=#b3b3b3;strokeColor=#666666;" vertex="1" parent="1">
          <mxGeometry x="180" y="-45" width="50" height="50" as="geometry" />
        </mxCell>
        <mxCell id="vmLAb0V-5SANhqbDNb4d-28" value="" style="endArrow=none;html=1;rounded=0;entryX=0;entryY=0;entryDx=0;entryDy=0;exitX=1;exitY=1;exitDx=0;exitDy=0;fillColor=#f5f5f5;gradientColor=#b3b3b3;strokeColor=#666666;" edge="1" parent="1" source="vmLAb0V-5SANhqbDNb4d-27" target="vmLAb0V-5SANhqbDNb4d-27">
          <mxGeometry width="50" height="50" relative="1" as="geometry">
            <mxPoint x="256" y="36" as="sourcePoint" />
            <mxPoint x="306" y="-14" as="targetPoint" />
          </mxGeometry>
        </mxCell>
        <mxCell id="vmLAb0V-5SANhqbDNb4d-29" value="" style="endArrow=none;html=1;rounded=0;exitX=0;exitY=1;exitDx=0;exitDy=0;entryX=1;entryY=0;entryDx=0;entryDy=0;fillColor=#f5f5f5;gradientColor=#b3b3b3;strokeColor=#666666;" edge="1" parent="1" source="vmLAb0V-5SANhqbDNb4d-27" target="vmLAb0V-5SANhqbDNb4d-27">
          <mxGeometry width="50" height="50" relative="1" as="geometry">
            <mxPoint x="248" y="28" as="sourcePoint" />
            <mxPoint x="298" y="-22" as="targetPoint" />
          </mxGeometry>
        </mxCell>
        <mxCell id="vmLAb0V-5SANhqbDNb4d-30" style="edgeStyle=orthogonalEdgeStyle;rounded=0;orthogonalLoop=1;jettySize=auto;html=1;startArrow=classic;startFill=1;dashed=1;shape=flexArrow;strokeWidth=2;" edge="1" parent="1" source="vmLAb0V-5SANhqbDNb4d-31" target="vmLAb0V-5SANhqbDNb4d-23">
          <mxGeometry relative="1" as="geometry" />
        </mxCell>
        <mxCell id="vmLAb0V-5SANhqbDNb4d-31" value="" style="whiteSpace=wrap;html=1;aspect=fixed;fillColor=#ffcd28;gradientColor=#ffa500;strokeColor=#d79b00;" vertex="1" parent="1">
          <mxGeometry x="1030" y="230" width="60" height="60" as="geometry" />
        </mxCell>
        <mxCell id="vmLAb0V-5SANhqbDNb4d-32" value="" style="endArrow=none;html=1;rounded=0;entryX=0.5;entryY=0;entryDx=0;entryDy=0;exitX=0.5;exitY=1;exitDx=0;exitDy=0;fillColor=#ffcd28;gradientColor=#ffa500;strokeColor=#d79b00;" edge="1" parent="1" source="vmLAb0V-5SANhqbDNb4d-31" target="vmLAb0V-5SANhqbDNb4d-31">
          <mxGeometry width="50" height="50" relative="1" as="geometry">
            <mxPoint x="1046" y="278" as="sourcePoint" />
            <mxPoint x="1096" y="228" as="targetPoint" />
          </mxGeometry>
        </mxCell>
        <mxCell id="vmLAb0V-5SANhqbDNb4d-33" value="" style="endArrow=none;html=1;rounded=0;exitX=0;exitY=0.5;exitDx=0;exitDy=0;entryX=1;entryY=0.5;entryDx=0;entryDy=0;fillColor=#ffcd28;gradientColor=#ffa500;strokeColor=#d79b00;" edge="1" parent="1" source="vmLAb0V-5SANhqbDNb4d-31" target="vmLAb0V-5SANhqbDNb4d-31">
          <mxGeometry width="50" height="50" relative="1" as="geometry">
            <mxPoint x="1046" y="278" as="sourcePoint" />
            <mxPoint x="1096" y="228" as="targetPoint" />
          </mxGeometry>
        </mxCell>
        <mxCell id="vmLAb0V-5SANhqbDNb4d-34" style="edgeStyle=orthogonalEdgeStyle;rounded=0;orthogonalLoop=1;jettySize=auto;html=1;strokeWidth=2;" edge="1" parent="1" source="vmLAb0V-5SANhqbDNb4d-37">
          <mxGeometry relative="1" as="geometry">
            <mxPoint x="110" y="500" as="targetPoint" />
            <Array as="points">
              <mxPoint x="120" y="500" />
            </Array>
          </mxGeometry>
        </mxCell>
        <mxCell id="vmLAb0V-5SANhqbDNb4d-35" style="edgeStyle=orthogonalEdgeStyle;rounded=0;orthogonalLoop=1;jettySize=auto;html=1;strokeWidth=2;startArrow=classic;startFill=1;endArrow=none;endFill=0;" edge="1" parent="1" source="vmLAb0V-5SANhqbDNb4d-37">
          <mxGeometry relative="1" as="geometry">
            <mxPoint x="110" y="540" as="targetPoint" />
            <Array as="points">
              <mxPoint x="160" y="540" />
              <mxPoint x="160" y="540" />
            </Array>
          </mxGeometry>
        </mxCell>
        <mxCell id="vmLAb0V-5SANhqbDNb4d-36" style="edgeStyle=orthogonalEdgeStyle;rounded=0;orthogonalLoop=1;jettySize=auto;html=1;entryX=0.5;entryY=1;entryDx=0;entryDy=0;dashed=1;strokeWidth=2;startArrow=classic;startFill=1;" edge="1" parent="1" source="vmLAb0V-5SANhqbDNb4d-37" target="vmLAb0V-5SANhqbDNb4d-13">
          <mxGeometry relative="1" as="geometry">
            <Array as="points">
              <mxPoint x="350" y="470" />
              <mxPoint x="350" y="470" />
            </Array>
          </mxGeometry>
        </mxCell>
        <mxCell id="vmLAb0V-5SANhqbDNb4d-37" value="&lt;font style=&quot;font-size: 16px;&quot;&gt;DMA Request &amp;amp; ACK&lt;/font&gt;" style="rounded=0;whiteSpace=wrap;html=1;strokeWidth=2;" vertex="1" parent="1">
          <mxGeometry x="285" y="490" width="120" height="60" as="geometry" />
        </mxCell>
        <mxCell id="vmLAb0V-5SANhqbDNb4d-38" value="&lt;font style=&quot;font-size: 16px;&quot;&gt;DMA_ACK [0:255]&lt;/font&gt;" style="text;html=1;align=center;verticalAlign=middle;resizable=0;points=[];autosize=1;strokeColor=none;fillColor=none;" vertex="1" parent="1">
          <mxGeometry x="80" y="468" width="150" height="30" as="geometry" />
        </mxCell>
        <mxCell id="vmLAb0V-5SANhqbDNb4d-39" value="&lt;font style=&quot;font-size: 16px;&quot;&gt;DMA_Req [0:255]&lt;/font&gt;" style="text;html=1;align=center;verticalAlign=middle;resizable=0;points=[];autosize=1;strokeColor=none;fillColor=none;" vertex="1" parent="1">
          <mxGeometry x="80" y="510" width="150" height="30" as="geometry" />
        </mxCell>
        <mxCell id="vmLAb0V-5SANhqbDNb4d-40" value="&lt;font style=&quot;font-size: 16px;&quot;&gt;Interrupt signals [0:255]&lt;/font&gt;" style="text;html=1;align=center;verticalAlign=middle;resizable=0;points=[];autosize=1;strokeColor=none;fillColor=none;" vertex="1" parent="1">
          <mxGeometry x="1020" y="410" width="190" height="30" as="geometry" />
        </mxCell>
        <mxCell id="vmLAb0V-5SANhqbDNb4d-41" value="&lt;font style=&quot;font-size: 16px;&quot;&gt;Initiator socket&lt;/font&gt;" style="text;html=1;align=center;verticalAlign=middle;resizable=0;points=[];autosize=1;strokeColor=none;fillColor=none;" vertex="1" parent="1">
          <mxGeometry x="1030" y="195" width="130" height="30" as="geometry" />
        </mxCell>
        <mxCell id="vmLAb0V-5SANhqbDNb4d-42" value="&lt;font style=&quot;font-size: 16px;&quot;&gt;Target socket&lt;/font&gt;" style="text;html=1;align=center;verticalAlign=middle;resizable=0;points=[];autosize=1;strokeColor=none;fillColor=none;" vertex="1" parent="1">
          <mxGeometry x="105" y="-80" width="120" height="30" as="geometry" />
        </mxCell>
      </root>
    </mxGraphModel>
  </diagram>
  <diagram id="BW_e3wI1eb_uv_Frcjsd" name="Flow diagram">
    <mxGraphModel dx="989" dy="577" grid="1" gridSize="10" guides="1" tooltips="1" connect="1" arrows="1" fold="1" page="0" pageScale="1" pageWidth="850" pageHeight="1100" math="0" shadow="0">
      <root>
        <mxCell id="0" />
        <mxCell id="1" parent="0" />
      </root>
    </mxGraphModel>
  </diagram>
</mxfile>
